<svg height="512" viewBox="0 0 38 58" width="512" xmlns="http://www.w3.org/2000/svg"><g id="Page-1" fill="none" fill-rule="evenodd"><g id="006---Freestanding-Net" fill-rule="nonzero"><path id="Rectangle-path" d="m16 25h6v30h-6z" fill="#bdc3c7"/><path id="Shape" d="m5 52h28c2.7614237 0 5 2.2385763 5 5 0 .5522847-.4477153 1-1 1h-36c-.55228475 0-1-.4477153-1-1 0-2.7614237 2.23857625-5 5-5z" fill="#d25627"/><path id="Shape" d="m8.67 22.14-7.26-2.72c-.2435544-.0898191-.40657535-.320434-.41-.58v-11.06c.00217291-.18891476.08605932-.3676293.23-.49 8.05-6.63 15.6-7.26 17.77-7.26s9.72.63 17.77 7.26c.1439407.1223707.2278271.30108524.23.49v11.06c-.0034247.259566-.1664456.4901809-.41.58l-7.27 2.72z" fill="#f29c1f"/><path id="Shape" d="m5 14c-.55228475 0-1-.4477153-1-1v-3.585c0-.3147573.14819416-.61114562.4-.8 1.53973357-1.15636844 3.1834463-2.16736893 4.91-3.02.49234272-.22337061 1.0730683-.01498163 1.311058.47046321.2379897.48544485.047055 1.0721408-.431058 1.32453679-1.46532251.72401536-2.86695851 1.57034927-4.19 2.53v3.08c0 .5522847-.44771525 1-1 1z" fill="#fff"/><path id="Shape" d="m28 22h-2v-9c0-.5522847-.4477153-1-1-1h-12c-.5522847 0-1 .4477153-1 1v9h-2v-9c0-1.6568542 1.3431458-3 3-3h12c1.6568542 0 3 1.3431458 3 3z" fill="#fff"/><rect id="Rectangle-path" fill="#e64c3c" height="5" rx="2.5" width="24" x="7" y="22"/><circle id="Oval" cx="13" cy="5" fill="#fff" r="1"/><path id="Shape" d="m28.5 27h-1.42l-1.36 1.75-1.58-1.75h-3.57l-1.57 1.91-1.57-1.91h-3.59l-1.55 1.74-1.36-1.74h-1.43c-.53343367.0015888-1.0529063-.1703987-1.48-.49.19102035.1938676.35881692.4093184.5.642.16900858.2306815.31472173.4775564.435.737.24369684.5175246.44891939 1.0523065.614 1.6.654203 2.0266662 1.0827961 4.1193273 1.278 6.24.1 1.088.148 2.181.148 3.274.0033628.4200591.2688919.7932367.6646433.9340974s.8373482.0193719 1.1053567-.3040974l2.81-3.41 2.64 3.39c.1894263.2440794.4810387.3868932.79.3868932s.6005737-.1428138.79-.3868932l2.63-3.38 2.8 3.4c.2674237.3279533.7123215.4520782 1.1108999.3099373s.66454-.5197723.6641001-.9429373c-.0430673-2.9299701.3423394-5.8505039 1.144-8.669.2148359-.707276.4740159-1.4003153.776-2.075.220777-.6655512.5940355-1.2702984 1.09-1.766-.4333664.331779-.9642137.5110719-1.51.51zm-15.6 9.32c-.0920052-1.427538-.2790868-2.8473534-.56-4.25l1.98 2.54zm.63-5.97 2.12-2.37 2.06 2.5-2.09 2.54zm5.48 7.02-2.13-2.73 2.12-2.58 2.13 2.59zm3.38-4.34-2.09-2.55 2.05-2.49 2.12 2.36zm2.71 3.29-1.41-1.71 1.97-2.53c-.280296 1.3993825-.4673741 2.8158308-.56 4.24z" fill="#a56a43"/><g fill="#805333"><path id="Shape" d="m19 28.91v.09h-2.51l-.84-1.02-.91 1.02h-5.33c-.12487608-.3796955-.27521721-.7505369-.45-1.11-.11998882-.2595125-.26394699-.5072545-.43-.74-.14502115-.2320956-.31613509-.4468268-.51-.64.4270937.3196013.94656633.4915888 1.48.49h1.43l1.36 1.74 1.55-1.74h3.59z"/><path id="Shape" d="m30.01 26.49c-.4985134.4952468-.872122 1.1019325-1.09 1.77-.11.24-.21.49-.3.74h-5.36l-.91-1.01-.83 1.01h-2.52v-.09l1.57-1.91h3.57l1.58 1.75 1.36-1.75h1.42c.5457863.0010719 1.0766336-.178221 1.51-.51z"/></g></g></g></svg>